# xmcd
#
# Track frame offsets:
#	150
#	12475
#	23077
#	33282
#	43867
#	60213
#	70757
#	82071
#	91264
#	108247
#	117639
#	128467
#
# Disc length: 1884 seconds
#
# Revision: 1
# Processed by: cddbd v1.5.2PL0 Copyright (c) Steve Scherf et al.
# Submitted via: audiograbber 1.83.01
#
DISCID=92075a0c
DTITLE=Øystein Sunde - Ikke bare tyll
DYEAR=1974
DGENRE=Blues
TTITLE0=Yrkesveileder blues
TTITLE1=Sjømannen og vannsenga
TTITLE2=Oppfinnervise
TTITLE3=Erter av en sekk
TTITLE4=I Oslo et sted
TTITLE5=Ingierstrand blues
TTITLE6=Fri som en vind
TTITLE7=Volda vise
TTITLE8=Lady Madonna
TTITLE9=Jentelei
TTITLE10=Mysil fra Trysil
TTITLE11=Hjemme igjen
EXTD=
EXTT0=
EXTT1=
EXTT2=
EXTT3=
EXTT4=
EXTT5=
EXTT6=
EXTT7=
EXTT8=
EXTT9=
EXTT10=
EXTT11=
PLAYORDER=
